<svg width="302" height="237" viewBox="0 0 302 237" fill="none" xmlns="http://www.w3.org/2000/svg">
<g clip-path="url(#clip0_601_366)">
<path d="M172.044 209.668C169.956 206.822 167.129 204.74 163.575 203.96C160.476 203.28 157.289 203.396 154.139 203.42L114.306 203.719C110.895 203.745 107.624 206.621 107.783 210.069C107.94 213.487 110.65 216.446 114.306 216.419C125.975 216.331 137.643 216.244 149.311 216.156C152.062 216.135 154.814 216.087 157.565 216.096C158.183 216.098 158.798 216.13 159.415 216.136C159.565 216.138 159.673 216.137 159.749 216.134C159.768 216.139 159.784 216.144 159.809 216.151C160.131 216.237 160.461 216.296 160.785 216.378C160.672 216.381 160.995 216.578 161.158 216.644C161.18 216.687 161.228 216.763 161.307 216.881C161.418 217.083 161.746 217.698 161.76 217.678C162.253 218.892 162.66 220.138 162.978 221.406C163.736 224.203 163.902 224.787 164.011 227.411C164.149 230.726 166.913 233.919 170.535 233.761C173.952 233.612 177.207 230.966 177.059 227.411C176.81 221.421 175.729 214.692 172.044 209.668Z" fill="#E6E6E6"/>
<path d="M116.648 223.998C115.9 219.584 115.166 215.169 114.403 210.758C113.629 206.284 112.049 202.187 108.471 199.25C107.515 198.465 106.524 197.733 105.529 197.003C105.179 196.746 104.83 196.489 104.484 196.226C104.463 196.211 104.45 196.201 104.432 196.187C104.394 196.156 104.349 196.118 104.287 196.067C102.796 194.839 101.356 193.556 99.9833 192.192C98.7647 190.981 97.5993 189.719 96.4871 188.404C96.2092 188.076 95.9348 187.745 95.6641 187.411C95.6175 187.353 95.3666 187.038 95.2014 186.832C95.0477 186.626 94.7668 186.254 94.7196 186.189C94.4032 185.753 94.0925 185.314 93.7874 184.87C91.7096 181.84 89.9104 178.637 88.4106 175.3C88.2619 174.969 88.1167 174.636 87.975 174.301C87.937 174.198 87.8878 174.067 87.8225 173.892C87.5203 173.083 87.2187 172.275 86.9424 171.457C86.3552 169.718 85.8505 167.954 85.4281 166.164C85.2192 165.28 85.0312 164.392 84.8641 163.499C84.7778 163.04 84.6972 162.58 84.6222 162.119C84.6098 162.042 84.5365 161.545 84.4933 161.264C84.4615 160.982 84.4022 160.482 84.3942 160.404C84.3464 159.94 84.304 159.474 84.267 159.009C84.1836 157.961 84.1272 156.912 84.0978 155.86C84.0476 153.992 84.082 152.124 84.2009 150.256C84.2686 149.206 84.365 148.159 84.4836 147.114C84.4908 147.05 84.4964 146.999 84.5015 146.953C84.5087 146.907 84.5171 146.854 84.527 146.788C84.6148 146.21 84.7072 145.633 84.8105 145.059C85.2018 142.876 85.7107 140.715 86.3352 138.584C86.6308 137.577 86.9519 136.577 87.2985 135.586C87.453 135.146 87.6124 134.707 87.7768 134.271C87.766 134.299 88.2588 133.074 88.2653 133.033C90.2204 128.537 93.4182 124.438 93.4226 119.33C93.4255 115.872 90.4199 112.56 86.8988 112.719C85.1432 112.784 83.4819 113.509 82.2649 114.742C81.048 115.975 80.3704 117.62 80.375 119.33C80.375 119.408 80.3746 119.474 80.3744 119.538C80.3416 119.646 80.3141 119.736 80.2894 119.815C79.9081 120.622 79.4411 121.388 79.0226 122.174C77.8766 124.327 76.8985 126.55 75.9693 128.806C74.4482 132.479 73.2839 136.283 72.4916 140.167C70.7696 148.679 70.6359 157.422 72.097 165.98C74.6265 180.986 82.9679 195.351 94.5645 205.007C95.5709 205.845 96.6018 206.655 97.6424 207.448C98.0731 207.777 98.5073 208.099 98.9437 208.419C99.15 208.57 100.004 209.226 99.6286 208.909C100.437 209.58 100.777 209.918 100.985 210.412C101.015 210.527 101.056 210.681 101.111 210.893C101.258 211.451 101.397 212.007 101.512 212.573C102.522 217.514 103.223 222.539 104.066 227.512C104.646 230.93 108.968 233.154 112.091 232.13C115.727 230.937 117.269 227.659 116.648 223.998Z" fill="#E6E6E6"/>
<path d="M172.704 236.814C169.964 236.821 167.333 235.77 165.389 233.892C163.444 232.013 162.344 229.46 162.331 226.794V219.55C154.54 220.399 127.86 220.202 120.212 219.006V226.504C120.191 229.168 119.09 231.717 117.147 233.594C115.203 235.471 112.577 236.525 109.839 236.525C107.101 236.525 104.475 235.471 102.532 233.594C100.589 231.717 99.4868 229.168 99.4663 226.504V211.783C89.108 206.182 80.4729 197.992 74.4522 188.059C68.4315 178.125 65.2432 166.807 65.2164 155.274C65.2164 135.498 74.4243 117.05 90.4792 104.66C100.918 96.5767 113.601 91.7155 126.899 90.7006C128.704 90.5628 130.52 90.4931 132.297 90.4931C138.557 90.4931 166.799 91.4343 173.885 93.4186L190.043 77.813C190.281 77.5805 190.584 77.4221 190.914 77.358C191.245 77.2939 191.587 77.3271 191.898 77.4532C192.212 77.5745 192.48 77.7852 192.668 78.0577C192.856 78.3302 192.955 78.6516 192.952 78.9798V81.461L196.098 78.4281C196.335 78.1953 196.638 78.0367 196.969 77.9725C197.299 77.9083 197.641 77.9414 197.952 78.0677C198.266 78.189 198.534 78.3997 198.722 78.6723C198.911 78.9448 199.01 79.2665 199.007 79.5949V107.322C207.115 114.436 213.294 123.388 216.998 133.383C220.701 143.377 221.815 154.107 220.239 164.621C218.664 175.135 214.448 185.108 207.966 193.657C201.483 202.206 192.934 209.066 183.077 213.63V226.794C183.063 229.46 181.964 232.013 180.019 233.892C178.074 235.77 175.444 236.821 172.704 236.814ZM163.147 218.65V226.794C163.167 229.248 164.183 231.594 165.973 233.323C167.763 235.051 170.182 236.021 172.704 236.021C175.225 236.021 177.644 235.051 179.434 233.323C181.225 231.594 182.241 229.248 182.261 226.794V213.128L182.494 213.021C193.555 207.912 202.945 199.919 209.621 189.93C218.128 177.183 221.666 161.893 219.595 146.827C217.523 131.761 209.979 117.915 198.327 107.794L198.191 107.676V79.5949C198.194 79.4243 198.144 79.2569 198.046 79.1153C197.948 78.9737 197.808 78.8646 197.644 78.8029C197.482 78.7353 197.302 78.717 197.129 78.7505C196.956 78.784 196.797 78.8677 196.673 78.9907L192.137 83.3644V78.9798C192.139 78.8092 192.089 78.6418 191.991 78.5002C191.893 78.3586 191.753 78.2496 191.589 78.1878C191.427 78.1203 191.247 78.1023 191.073 78.136C190.9 78.1697 190.741 78.2537 190.617 78.3769L174.113 94.3166L173.879 94.2451C167.291 92.2383 138.604 91.2868 132.297 91.2868C130.541 91.2868 128.747 91.3558 126.963 91.492C113.827 92.4944 101.298 97.2966 90.986 105.282C75.1272 117.52 66.0318 135.742 66.0318 155.274C66.0589 166.705 69.2302 177.921 75.2161 187.756C81.202 197.591 89.7843 205.687 100.071 211.203L100.282 211.316V226.504C100.303 228.958 101.319 231.304 103.109 233.032C104.899 234.76 107.318 235.729 109.839 235.729C112.36 235.729 114.779 234.76 116.569 233.032C118.359 231.304 119.376 228.958 119.397 226.504V218.056L119.88 218.145C126.752 219.403 155.692 219.602 162.686 218.709L163.147 218.65Z" fill="#3F3D56"/>
<path d="M117.427 47.274L72.2743 60.4818C70.8381 60.9036 69.6327 61.863 68.9229 63.1493C68.213 64.4356 68.0568 65.9436 68.4885 67.3419C68.9202 68.7403 69.9045 69.9146 71.2253 70.607C72.546 71.2994 74.0951 71.4532 75.5322 71.0345L115.046 59.4738L115.874 59.2317C116.041 55.0798 117.198 51.0228 119.254 47.3812C118.996 47.2682 118.72 47.1984 118.438 47.1748C118.098 47.1427 117.754 47.1764 117.427 47.274Z" fill="#FF9356"/>
<path d="M74.7513 73.8504C74.1519 73.849 73.5682 73.6642 73.0825 73.3223C72.5969 72.9804 72.2339 72.4986 72.0448 71.9449L69.2214 63.652C69.1034 63.3056 69.0567 62.9401 69.084 62.5762C69.1112 62.2123 69.2118 61.8572 69.38 61.5312C69.5482 61.2052 69.7808 60.9146 70.0644 60.6761C70.3481 60.4375 70.6772 60.2557 71.033 60.141L107.783 48.2865C108.139 48.1717 108.514 48.1262 108.888 48.1527C109.262 48.1792 109.626 48.277 109.961 48.4407C110.296 48.6044 110.595 48.8307 110.84 49.1068C111.085 49.3828 111.272 49.7031 111.39 50.0493L114.213 58.3423C114.448 59.0244 114.401 59.7687 114.082 60.4176C113.763 61.0664 113.197 61.5689 112.504 61.8186C112.47 61.831 112.435 61.8427 112.401 61.8537L75.652 73.7078C75.3615 73.802 75.0574 73.8502 74.7513 73.8504Z" fill="#2F2E41"/>
<path d="M143.575 32.5462C136.158 32.549 129.033 35.3609 123.708 40.3867C118.383 45.4125 115.277 52.2578 115.046 59.4737C115.038 59.7555 115.034 60.0413 115.034 60.327C115.034 65.8215 116.707 71.1926 119.844 75.7612C122.98 80.3297 127.437 83.8904 132.653 85.9931C137.868 88.0958 143.607 88.6459 149.143 87.574C154.68 86.5021 159.765 83.8562 163.757 79.971C167.749 76.0858 170.467 71.1357 171.568 65.7468C172.669 60.3578 172.104 54.772 169.944 49.6958C167.784 44.6195 164.126 40.2807 159.432 37.2281C154.738 34.1755 149.22 32.5462 143.575 32.5462ZM143.575 87.3141C136.224 87.3066 129.176 84.4609 123.978 79.4015C118.78 74.3421 115.857 67.4821 115.849 60.327C115.849 59.9579 115.857 59.5928 115.874 59.2316C116.094 53.9453 117.907 48.8387 121.085 44.5469C124.264 40.2551 128.669 36.9674 133.751 35.0926C138.834 33.2178 144.371 32.8387 149.674 34.0023C154.976 35.166 159.81 37.8211 163.575 41.6375C167.34 45.4538 169.869 50.2632 170.848 55.4674C171.827 60.6716 171.212 66.0411 169.081 70.9082C166.95 75.7754 163.396 79.9254 158.861 82.8423C154.326 85.7592 149.011 87.3142 143.575 87.3141Z" fill="#3F3D56"/>
<path d="M167.632 60.327C167.632 66.5371 165.097 72.4929 160.586 76.8841C156.074 81.2753 149.955 83.7423 143.575 83.7423C137.195 83.7423 131.076 81.2753 126.565 76.8841C122.053 72.4929 119.519 66.5371 119.519 60.327C119.519 59.5849 119.555 58.8546 119.625 58.1323C120.204 52.1389 123.133 46.5931 127.803 42.6464C132.473 38.6996 138.526 36.6552 144.704 36.9377C150.882 37.2201 156.711 39.8077 160.98 44.1631C165.249 48.5185 167.631 54.3071 167.632 60.327Z" fill="#E6E6E6"/>
<path d="M150.739 61.8828C150.156 61.1365 149.389 60.5455 148.509 60.1643C147.423 59.7191 146.302 59.3607 145.157 59.0928V52.7191C146.918 52.9774 148.569 53.7101 149.924 54.8344L151.253 52.0761C150.488 51.4132 149.611 50.8854 148.66 50.5165C147.605 50.1009 146.499 49.8246 145.369 49.6949V46.4644H142.291V49.7267C141.102 49.8566 139.955 50.2314 138.927 50.826C137.998 51.3612 137.216 52.1074 136.648 53.0008C136.105 53.8727 135.824 54.8749 135.836 55.894C135.783 56.9984 136.112 58.0883 136.77 58.9896C137.376 59.7699 138.175 60.3873 139.094 60.7834C140.197 61.2418 141.337 61.6096 142.503 61.8828V67.9906C140.425 67.838 138.446 67.0693 136.831 65.7879L135.502 68.5502C136.405 69.2767 137.432 69.8435 138.536 70.2249C139.745 70.6463 141.009 70.9027 142.291 70.9869V74.1897H145.369V70.9274C147.079 70.7455 148.683 70.0299 149.94 68.8875C150.494 68.3706 150.931 67.7474 151.224 67.0575C151.518 66.3675 151.661 65.6257 151.644 64.8791C151.695 63.8099 151.377 62.7548 150.739 61.8828ZM142.503 58.4181C141.753 58.1968 141.056 57.8325 140.452 57.3466C140.213 57.1393 140.023 56.8831 139.898 56.5963C139.772 56.3095 139.714 55.9992 139.726 55.6876C139.704 54.9808 139.971 54.2942 140.468 53.7787C141.02 53.2379 141.731 52.8784 142.503 52.7508V58.4181ZM147.09 66.8635C146.57 67.3827 145.892 67.7262 145.157 67.8437V62.5892C145.86 62.7727 146.517 63.0926 147.09 63.5298C147.307 63.7102 147.479 63.9359 147.594 64.1901C147.709 64.4443 147.764 64.7205 147.754 64.9982C147.783 65.6793 147.545 66.3456 147.09 66.8635Z" fill="#FF9356"/>
<path d="M76.0619 107.461C75.4315 107.46 74.8192 107.256 74.3197 106.882C73.8203 106.508 73.4616 105.984 73.2994 105.391L71.7622 99.7275C71.5698 99.0156 71.6753 98.2586 72.0556 97.6224C72.4359 96.9861 73.0599 96.5227 73.7907 96.3337L122.287 83.8603C123.019 83.6744 123.797 83.7782 124.45 84.149C125.103 84.5198 125.579 85.1274 125.774 85.8388L127.076 90.6369L126.832 90.6553C114.394 91.5966 102.494 95.9859 92.5383 103.304L92.4676 103.337L76.7859 107.369C76.5496 107.43 76.3063 107.461 76.0619 107.461Z" fill="#2F2E41"/>
<path d="M68.0298 135.435C62.3409 134.616 56.9002 132.614 52.0783 129.564C49.6895 128.054 47.478 126.294 45.4836 124.314C43.5151 122.36 41.6319 120.139 40.6569 117.536C39.7188 115.128 39.7672 112.461 40.792 110.087C41.8028 107.727 43.7337 105.854 46.1614 104.878C48.6035 103.93 51.5542 103.828 53.9309 104.867C55.0635 105.35 56.0436 106.118 56.7705 107.091C57.1085 107.54 57.3587 108.046 57.5087 108.583C57.6479 109.07 57.6605 109.582 57.5455 110.075C57.4061 110.567 57.1604 111.024 56.8246 111.415C56.4889 111.807 56.0711 112.124 55.599 112.346C54.5602 112.865 53.4346 113.199 52.2751 113.333C51.1089 113.488 49.4337 113.628 48.4962 112.717C48.3032 112.537 48.1514 112.319 48.0507 112.078C47.9803 111.893 47.9562 111.695 47.9804 111.499C47.9668 111.586 48.037 111.312 48.033 111.323C48.0182 111.363 47.954 111.462 48.0452 111.31C48.0737 111.26 48.1055 111.212 48.1403 111.166C48.1093 111.205 48.0412 111.27 48.1628 111.159C48.2632 111.052 48.3923 110.974 48.5356 110.935C48.592 110.919 48.6492 110.906 48.7058 110.891C48.8497 110.853 48.5625 110.893 48.7096 110.888C48.7664 110.887 48.8239 110.888 48.8805 110.886C49.0248 110.879 48.7381 110.847 48.8764 110.881C48.9301 110.894 48.9833 110.907 49.0362 110.923C49.1512 110.959 48.9548 110.841 49.0327 110.929C49.124 111.032 48.9368 110.829 49.0406 110.929C49.0923 110.978 49.141 111.03 49.1865 111.085C49.3665 111.258 49.6093 111.355 49.8623 111.355C50.1153 111.355 50.3581 111.258 50.5381 111.085C50.712 110.908 50.8091 110.672 50.8091 110.427C50.8091 110.182 50.712 109.947 50.5381 109.769C49.5957 108.632 47.7341 108.913 46.7807 109.874C45.5648 111.1 46.0463 113.043 47.229 114.112C48.5679 115.323 50.4642 115.407 52.1864 115.204C53.6419 115.068 55.0603 114.678 56.3735 114.052C57.6783 113.428 58.6989 112.355 59.2375 111.041C59.4806 110.339 59.568 109.596 59.4937 108.859C59.4195 108.122 59.1853 107.409 58.8067 106.767C57.2862 103.984 54.1375 102.558 51.0254 102.311C49.423 102.189 47.8117 102.377 46.2847 102.865C44.7577 103.353 43.3452 104.131 42.1291 105.153C39.785 107.207 38.3415 110.06 38.0973 113.12C37.8256 116.294 39.0905 119.376 40.9348 121.937C42.8655 124.539 45.1695 126.858 47.7764 128.824C52.8728 132.784 58.851 135.528 65.2324 136.837C65.9914 136.989 66.7545 137.12 67.5217 137.229C67.7658 137.286 68.0233 137.251 68.2417 137.13C68.4601 137.01 68.6231 136.812 68.6974 136.579C68.7629 136.341 68.7296 136.088 68.6047 135.873C68.4798 135.659 68.2733 135.502 68.0298 135.435Z" fill="#3F3D56"/>
<path d="M159.112 95.0031C150.777 94.8886 142.468 95.0945 134.186 95.6208C131.355 95.8007 128.906 96.7746 128.906 98.4116C128.906 99.7802 131.335 101.384 134.186 101.202C142.464 100.676 150.773 100.47 159.112 100.585C165.911 100.678 165.907 95.0964 159.112 95.0031Z" fill="#CCCCCC"/>
<path d="M146.793 100.308C145.892 100.308 124.732 100.275 124.732 97.4305C124.732 94.5858 145.892 94.553 146.793 94.553C147.694 94.553 168.854 94.5858 168.854 97.4305C168.854 100.275 147.694 100.308 146.793 100.308ZM125.559 97.4305C126.139 98.2931 133.917 99.5145 146.793 99.5145C159.669 99.5145 167.447 98.2931 168.026 97.4305C167.447 96.5682 159.669 95.3468 146.793 95.3468C133.917 95.3468 126.139 96.5682 125.559 97.4305Z" fill="#3F3D56"/>
<path d="M213.928 175.098C218.612 174.972 224.442 174.813 228.933 171.62C230.271 170.63 231.37 169.368 232.153 167.921C232.936 166.474 233.385 164.878 233.468 163.245C233.559 160.723 232.623 158.521 230.832 157.048C228.486 155.119 225.061 154.666 221.369 155.722L225.194 128.518L222.386 128.143L217.89 160.126L220.234 159.078C222.953 157.865 226.684 157.247 229.002 159.154C229.572 159.653 230.015 160.273 230.299 160.965C230.582 161.658 230.697 162.405 230.636 163.148C230.567 164.363 230.23 165.55 229.648 166.628C229.066 167.706 228.252 168.648 227.262 169.392C223.767 171.877 219.12 172.198 213.849 172.341L213.928 175.098Z" fill="#3F3D56"/>
<path d="M206.166 130.864H190.903V133.622H206.166V130.864Z" fill="#3F3D56"/>
<path d="M82.9682 120.147C82.2889 120.145 81.6325 119.907 81.1167 119.477C80.6008 119.047 80.2593 118.452 80.1532 117.799L79.2216 112.012C79.1053 111.284 79.2903 110.541 79.7361 109.946C80.1819 109.35 80.8521 108.952 81.5996 108.837L131.152 101.28C131.9 101.166 132.663 101.346 133.275 101.78C133.886 102.214 134.296 102.867 134.414 103.594L135.345 109.381C135.462 110.109 135.277 110.852 134.831 111.447C134.385 112.042 133.715 112.441 132.968 112.556L83.4148 120.113C83.267 120.136 83.1178 120.147 82.9682 120.147Z" fill="#2F2E41"/>
<path d="M62.4608 52.329C73.9453 52.329 83.2553 43.2671 83.2553 32.0887C83.2553 20.9103 73.9453 11.8484 62.4608 11.8484C50.9763 11.8484 41.6663 20.9103 41.6663 32.0887C41.6663 43.2671 50.9763 52.329 62.4608 52.329Z" fill="#FF9356"/>
<path d="M74.2343 37.3257C74.8989 37.0995 75.506 36.7373 76.0148 36.2637C76.3515 35.926 76.6082 35.5207 76.767 35.0762C76.9258 34.6318 76.9829 34.1589 76.9342 33.6908C76.9059 33.3571 76.7987 33.0343 76.621 32.7476C76.4434 32.4609 76.2 32.2181 75.9099 32.0382C75.1573 31.5877 74.1629 31.6047 73.1589 32.0577L73.0431 24.1569L72.2277 24.1682L72.3639 33.4564L72.9846 33.0602C73.7044 32.6015 74.7386 32.2688 75.4826 32.7143C75.6667 32.8322 75.8203 32.9899 75.9315 33.175C76.0427 33.3601 76.1086 33.5678 76.124 33.7817C76.1583 34.1305 76.115 34.4823 75.9971 34.8134C75.8791 35.1444 75.6893 35.4468 75.4405 35.7C74.5566 36.5537 73.2482 36.8398 71.7549 37.1014L71.8994 37.8825C72.6932 37.7652 73.4746 37.5788 74.2343 37.3257Z" fill="#2F2E41"/>
<path d="M81.4399 23.6024L77.0974 24.2425L77.2195 25.0272L81.562 24.3871L81.4399 23.6024Z" fill="#2F2E41"/>
<path d="M67.7331 25.6224L63.3906 26.2625L63.5127 27.0472L67.8552 26.4071L67.7331 25.6224Z" fill="#2F2E41"/>
<path d="M76.2028 119.793C75.455 119.792 74.7253 119.568 74.111 119.153C73.4967 118.738 73.0268 118.151 72.7638 117.469L58.4265 80.0968C56.6741 75.5133 56.8613 70.4403 58.9468 65.9909C61.0324 61.5415 64.8461 58.0791 69.5513 56.3632L81.2091 52.1261C81.6599 51.9612 82.1398 51.8846 82.6211 51.9009C83.1024 51.9171 83.5756 52.0259 84.0136 52.2209C84.4504 52.4109 84.844 52.6837 85.1714 53.0235C85.4987 53.3632 85.7531 53.763 85.9199 54.1996L112.478 103.008C112.651 103.448 112.732 103.917 112.718 104.388C112.703 104.859 112.593 105.322 112.394 105.751C112.195 106.181 111.91 106.567 111.557 106.889C111.204 107.211 110.788 107.462 110.335 107.627L77.4852 119.566C77.0752 119.716 76.6408 119.793 76.2028 119.793Z" fill="#2F2E41"/>
<path d="M77.6721 53.4115L104.024 87.7111L86.1927 53.7715C86.0455 53.3755 85.8195 53.0116 85.5277 52.7006C85.2359 52.3897 84.8841 52.1377 84.4922 51.9591C84.1004 51.7805 83.6762 51.6788 83.244 51.6598C82.8117 51.6408 82.3799 51.7048 81.9731 51.8483L77.6721 53.4115Z" fill="#E6E6E6"/>
<path d="M119.396 79.46L72.3457 76.5101C71.6041 76.4636 70.8791 76.2753 70.2122 75.9561C69.5453 75.6369 68.9495 75.193 68.4589 74.6497C67.9682 74.1064 67.5924 73.4743 67.3527 72.7896C67.113 72.1049 67.0142 71.3809 67.062 70.6591C67.1098 69.9372 67.3031 69.2316 67.6311 68.5824C67.959 67.9333 68.4151 67.3534 68.9733 66.8759C69.5315 66.3983 70.1809 66.0324 70.8843 65.7991C71.5878 65.5659 72.3316 65.4697 73.0732 65.5162L120.124 68.466C120.471 68.4877 120.811 68.5758 121.123 68.7253C121.436 68.8748 121.715 69.0827 121.944 69.3371C122.174 69.5916 122.35 69.8876 122.462 70.2082C122.575 70.5289 122.621 70.8679 122.598 71.206L122.212 77.0515C122.166 77.7343 121.845 78.3716 121.317 78.8232C120.789 79.2749 120.098 79.504 119.396 79.46Z" fill="#FF9356"/>
<path d="M106.824 81.3512C106.762 81.3512 106.699 81.3493 106.637 81.3454L68.0014 78.9231C67.6274 78.8997 67.2617 78.8048 66.9254 78.6438C66.589 78.4829 66.2885 78.259 66.0411 77.985C65.7936 77.711 65.604 77.3922 65.4832 77.0469C65.3623 76.7015 65.3125 76.3364 65.3366 75.9724L65.9973 65.9879C66.0214 65.6238 66.1189 65.2679 66.2843 64.9405C66.4497 64.6131 66.6798 64.3207 66.9613 64.0798C67.2429 63.839 67.5704 63.6545 67.9252 63.5368C68.28 63.4192 68.6551 63.3708 69.0292 63.3943L107.665 65.8163C108.42 65.8645 109.124 66.2022 109.624 66.7554C110.123 67.3086 110.377 68.032 110.329 68.7671L109.669 78.7518C109.632 79.2868 109.438 79.8002 109.109 80.2304C108.78 80.6606 108.331 80.9893 107.815 81.177C107.498 81.2924 107.162 81.3514 106.824 81.3512Z" fill="#2F2E41"/>
<path d="M62.2225 18.6292C64.9581 16.3391 68.7147 18.3877 71.8519 18.0291C74.8533 17.686 77.2233 15.0655 77.8287 12.2815C78.535 9.03356 76.803 5.77956 74.2501 3.75451C71.4541 1.53658 67.7459 0.899865 64.2319 1.3102C60.2044 1.78049 56.5211 3.60781 53.2161 5.81804C50.026 7.88538 47.0923 10.3051 44.4736 13.0288C42.1286 15.5496 40.1419 18.5543 39.5075 21.9464C38.9309 25.029 39.3711 28.4451 41.2434 31.0565C42.2362 32.395 43.5666 33.4619 45.1064 34.1542C46.7118 34.9215 48.4243 35.4701 49.9797 36.3376C52.3314 37.6494 54.6171 40.3694 53.8804 43.1999C53.7225 43.8182 53.4108 44.3892 52.9728 44.8627C52.4465 45.4314 51.4973 44.68 52.0249 44.1099C52.9517 43.1085 52.9151 41.7731 52.4213 40.5776C51.834 39.2305 50.7941 38.1175 49.4719 37.4208C47.8438 36.5148 46.0464 35.9556 44.3777 35.1303C42.7805 34.3764 41.3941 33.2581 40.3364 31.8705C38.3393 29.169 37.7419 25.6532 38.1948 22.4008C38.685 18.8812 40.5428 15.6829 42.8718 13.0028C45.4064 10.086 48.5197 7.61705 51.7003 5.39902C55.1131 3.01906 58.8835 1.00697 63.0558 0.279229C66.6725 -0.35161 70.5927 0.0367742 73.7553 1.95518C76.7074 3.74588 78.9712 6.82625 79.1963 10.2683C79.2771 11.8344 78.9278 13.3931 78.1842 14.7842C77.4406 16.1752 76.3296 17.3483 74.9656 18.1826C73.5659 18.9979 71.9386 19.3648 70.3133 19.2317C68.5757 19.1234 66.8364 18.6055 65.0877 18.7493C64.2964 18.7961 63.5423 19.0926 62.9397 19.594C62.342 20.0944 61.6297 19.1254 62.2225 18.6292Z" fill="#2F2E41"/>
<path d="M301.515 237H0.485546C0.357031 237 0.233909 236.95 0.143167 236.861C0.0524247 236.773 0.00146484 236.653 0.00146484 236.527C0.00146484 236.402 0.0524247 236.282 0.143167 236.194C0.233909 236.105 0.357031 236.055 0.485546 236.055H301.515C301.643 236.055 301.767 236.105 301.858 236.193C301.949 236.282 302 236.402 302 236.527C302 236.653 301.949 236.773 301.858 236.862C301.767 236.95 301.643 237 301.515 237Z" fill="#3F3D56"/>
</g>
<defs>
<clipPath id="clip0_601_366">
<rect width="302" height="237" fill="white"/>
</clipPath>
</defs>
</svg>
